<svg width="280" height="280" fill="none" xmlns="http://www.w3.org/2000/svg"><g clip-path="url(#clip0_323_131)"><path d="M62.732 126.852s34.67-1.387 42.163-58.323c6.653-50.565 65.118-27.55 82.017-7.393 21.892 26.11 10.222 71.026 38.543 76.701 28.32 5.674 9.826 68.761-33.162 62.723-53.476-7.512-40.538 23.706-56.591 36.92-11.522 9.483-58.762.354-60.337-34.071-1.325-28.968-13.556-28.877-22.225-32.161-12.504-4.738-20.383-39.047 9.592-44.396z" fill="#FFDEDE"/><path d="M186.983 205.233l-38.091-37.639-7.543 7.633 38.091 37.639 7.543-7.633z" fill="#FF9293"/><path d="M201.534 215.347l-29.635-29.284a.42.42 0 00-.594.004l-11.217 11.351a.42.42 0 00.004.594l29.635 29.284a.42.42 0 00.594-.004l11.216-11.351a.42.42 0 00-.003-.594zm-86.403-28.823c26.206 0 47.45-21.244 47.45-47.45 0-26.205-21.244-47.45-47.45-47.45-26.206 0-47.45 21.245-47.45 47.45 0 26.206 21.245 47.45 47.45 47.45z" fill="#F54749"/><path d="M115.131 178.782c21.93 0 39.707-17.778 39.707-39.708 0-21.929-17.777-39.707-39.707-39.707s-39.707 17.778-39.707 39.707c0 21.93 17.777 39.708 39.707 39.708z" fill="#FFDEDE"/><path d="M223.03 104.685l-35.461-12.977a2.443 2.443 0 00-3.134 1.454l-8.324 22.745a2.444 2.444 0 001.455 3.135l35.46 12.977a2.444 2.444 0 003.135-1.455l8.323-22.745a2.442 2.442 0 00-1.454-3.134z" fill="#F54749"/><path d="M179.397 106.929l40.05 14.656-3.286 8.979a2.444 2.444 0 01-3.135 1.455l-35.46-12.978a2.443 2.443 0 01-1.455-3.134l3.286-8.978z" fill="#FF9293"/><path d="M191.314 112.972l-10.976-4.017-.76 2.076 10.976 4.017.76-2.076zm1.07 4.428l-13.349-4.885-.76 2.076 13.35 4.886.759-2.077z" fill="#fff"/><path d="M118.079 193.653l-16.519 22.69a1.816 1.816 0 00.4 2.537l14.553 10.595a1.815 1.815 0 002.537-.399l16.519-22.689a1.818 1.818 0 00-.4-2.538l-14.553-10.595a1.817 1.817 0 00-2.537.399z" fill="#F54749"/><path d="M110.768 225.293l18.656-25.626 5.745 4.182c.811.591.99 1.727.4 2.538l-16.519 22.689c-.59.811-1.726.99-2.537.399l-5.745-4.182z" fill="#FF9293"/><path d="M117.521 218.011l-5.113 7.024 1.329.967 5.113-7.023-1.329-.968zm3.384.14l-6.219 8.542 1.329.967 6.219-8.542-1.329-.967z" fill="#fff"/></g><defs><clipPath id="clip0_323_131"><path fill="#fff" d="M0 0h280v280H0z"/></clipPath></defs></svg>