<svg width="280" height="280" fill="none" xmlns="http://www.w3.org/2000/svg"><path d="M126.552 50.594s-8.153 46.106-59.418 48.78C15.87 102.046 3.07 176.27 55.373 189.141c52.303 12.871 27.245 48.868 61.64 55.498 39.093 7.536 38.613-50.105 65.686-51.485 59.753-3.045 90.234-30.943 68.241-52.791-38.606-38.35-58.055-31.738-57.248-62.915.806-31.177-55.932-64.596-67.14-26.855z" fill="#FFDEDE"/><path d="M207.362 100.715L85.126 82.231a8 8 0 00-9.107 6.714l-11.856 78.404a8 8 0 006.714 9.106l122.236 18.485a7.999 7.999 0 009.106-6.714l11.857-78.404a8.001 8.001 0 00-6.714-9.107z" fill="#F54749"/><path d="M68.843 136.399L206.9 157.276l-4.68 30.95a8 8 0 01-9.107 6.714L70.877 176.455a8 8 0 01-6.714-9.106l4.68-30.95z" fill="#FF9293"/><path d="M111.021 148.007l-37.838-5.722-1.082 7.158 37.837 5.722 1.083-7.158zm6.325 13.509l-46.019-6.959-1.082 7.158 46.019 6.96 1.082-7.159z" fill="#fff"/><path d="M180.836 214.776c11.012 0 19.94-8.928 19.94-19.94 0-11.013-8.928-19.94-19.94-19.94-11.013 0-19.94 8.927-19.94 19.94 0 11.012 8.927 19.94 19.94 19.94z" fill="#F54749" stroke="#fff" stroke-width="15" stroke-miterlimit="10"/><path d="M188.517 193.166h-5.678a.333.333 0 01-.236-.098.344.344 0 01-.073-.108.351.351 0 01-.025-.128v-5.678a1.67 1.67 0 10-3.34 0v5.678a.351.351 0 01-.025.128.344.344 0 01-.181.18.333.333 0 01-.128.026h-5.677a1.673 1.673 0 00-1.655 1.67 1.668 1.668 0 001.655 1.67h5.678a.334.334 0 01.334.334v5.678a1.668 1.668 0 002.85 1.18c.314-.313.49-.737.49-1.18v-5.678a.334.334 0 01.334-.334h5.677a1.668 1.668 0 000-3.34z" fill="#fff"/></svg>