<svg width="18" height="18" fill="none" xmlns="http://www.w3.org/2000/svg"><path d="M9 17.474c4.623 0 8.467-3.835 8.467-8.467 0-4.624-3.852-8.467-8.475-8.467C4.36.54.533 4.383.533 9.007c0 4.632 3.835 8.467 8.467 8.467zm-2.98-4.782a.705.705 0 01-.706-.705c0-.191.083-.357.216-.482l2.474-2.49-2.474-2.49a.64.64 0 01-.216-.482c0-.381.316-.689.706-.689.19 0 .357.075.481.208l2.49 2.482 2.508-2.49a.617.617 0 01.473-.216c.39 0 .705.315.705.697a.63.63 0 01-.207.482L9.98 9.015l2.481 2.474a.705.705 0 01-.498 1.204.682.682 0 01-.49-.208l-2.481-2.49-2.474 2.49a.683.683 0 01-.498.207z" fill="#FF9293"/></svg>