<svg width="44" height="44" fill="none" xmlns="http://www.w3.org/2000/svg"><path d="M22 44c12.15 0 22-9.85 22-22S34.15 0 22 0 0 9.85 0 22s9.85 22 22 22z" fill="#F54749"/><path d="M24.66 11c-1.45 0-2.84.56-3.866 1.559a5.25 5.25 0 00-1.602 3.763v2.963h-2.926a.263.263 0 00-.266.259v3.912c0 .143.12.26.266.26h2.926v8.025c0 .143.12.259.266.259h4.02a.263.263 0 00.266-.259v-8.026h2.952c.122 0 .228-.08.258-.196l1.005-3.912a.26.26 0 00-.258-.322h-3.957v-2.963a.88.88 0 01.268-.63.93.93 0 01.648-.262h3.074a.263.263 0 00.266-.259V11.26a.263.263 0 00-.266-.259H24.66z" fill="#fff"/></svg>