<svg width="44" height="44" fill="none" xmlns="http://www.w3.org/2000/svg"><path d="M22 44c12.15 0 22-9.85 22-22S34.15 0 22 0 0 9.85 0 22s9.85 22 22 22z" fill="#F54749"/><path d="M22 18.117A3.886 3.886 0 0018.11 22 3.886 3.886 0 0022 25.883 3.886 3.886 0 0025.89 22 3.886 3.886 0 0022 18.117z" fill="#fff"/><path fill-rule="evenodd" clip-rule="evenodd" d="M15.74 11.345c4.127-.46 8.393-.46 12.52 0 2.271.254 4.103 2.04 4.37 4.317a54.48 54.48 0 010 12.676c-.267 2.276-2.099 4.063-4.37 4.317-4.127.46-8.393.46-12.52 0-2.271-.254-4.103-2.04-4.37-4.317a54.48 54.48 0 010-12.676c.267-2.276 2.099-4.063 4.37-4.317zm12.243 3.487a1.196 1.196 0 10-.002 2.391 1.196 1.196 0 00.002-2.391zM16.316 22A5.68 5.68 0 0122 16.325 5.68 5.68 0 0127.684 22 5.68 5.68 0 0122 27.675 5.68 5.68 0 0116.316 22z" fill="#fff"/></svg>