<svg width="44" height="44" fill="none" xmlns="http://www.w3.org/2000/svg"><path d="M44 22C44 9.85 34.15 0 22 0S0 9.85 0 22s9.85 22 22 22 22-9.85 22-22z" fill="#F54749"/><path d="M22 12c-2.672 0-4.839 2.038-4.839 4.551 0 2.514 2.167 4.552 4.839 4.552 2.672 0 4.839-2.038 4.839-4.552C26.839 14.038 24.672 12 22 12zm-5.161 11.53c-2.673 0-4.839 2.037-4.839 4.55v1.442c0 .914.704 1.694 1.664 1.841a54.96 54.96 0 0016.672 0c.96-.147 1.664-.927 1.664-1.84V28.08c0-2.514-2.166-4.551-4.839-4.551h-.44c-.238 0-.474.035-.7.105l-1.117.343a9.91 9.91 0 01-5.808 0l-1.117-.343a2.388 2.388 0 00-.7-.105h-.44z" fill="#fff"/></svg>