<svg width="11" height="11" fill="none" xmlns="http://www.w3.org/2000/svg"><g clip-path="url(#clip0_352_309)"><path d="M10.677 4.521l-2.998-.456-1.34-2.845a.372.372 0 00-.678 0l-1.34 2.845-2.998.456a.371.371 0 00-.216.115.406.406 0 00.007.56l2.17 2.215-.513 3.127a.413.413 0 00.022.216.38.38 0 00.128.17.366.366 0 00.398.03L6 9.478l2.681 1.476a.36.36 0 00.24.04.394.394 0 00.308-.456L8.717 7.41l2.169-2.215a.402.402 0 00.11-.226.392.392 0 00-.32-.449z" fill="#F54749"/></g><defs><clipPath id="clip0_352_309"><path fill="#fff" d="M0 0h11v11H0z"/></clipPath></defs></svg>