<svg width="44" height="44" fill="none" xmlns="http://www.w3.org/2000/svg"><path d="M22 44c12.15 0 22-9.85 22-22S34.15 0 22 0 0 9.85 0 22s9.85 22 22 22z" fill="#F54749"/><path fill-rule="evenodd" clip-rule="evenodd" d="M33 16.008c-.772.34-1.603.57-2.474.674a4.298 4.298 0 001.894-2.369 8.663 8.663 0 01-2.736 1.04A4.318 4.318 0 0026.54 14c-2.379 0-4.308 1.917-4.308 4.282 0 .335.039.662.112.976a12.255 12.255 0 01-8.88-4.474 4.27 4.27 0 001.333 5.716 4.313 4.313 0 01-1.952-.535v.053c0 2.075 1.486 3.805 3.456 4.2a4.355 4.355 0 01-1.946.073 4.31 4.31 0 004.025 2.974A8.68 8.68 0 0112 29.037a12.25 12.25 0 006.604 1.925c7.924 0 12.258-6.525 12.258-12.183 0-.186-.004-.37-.013-.554A8.745 8.745 0 0033 16.008z" fill="#fff"/></svg>