<svg width="280" height="280" viewBox="0 0 280 280" fill="none" xmlns="http://www.w3.org/2000/svg">
<path d="M126.552 50.594C126.552 50.594 118.399 96.6997 67.1344 99.3733C15.8692 102.047 3.06995 176.27 55.373 189.142C107.676 202.013 82.6177 238.01 117.013 244.64C156.106 252.176 155.626 194.535 182.699 193.155C242.452 190.11 272.933 162.212 250.94 140.364C212.334 102.014 192.885 108.626 193.692 77.4488C194.498 46.272 137.76 12.8529 126.552 50.594Z" fill="#FFDEDE"/>
<path d="M207.362 100.715L85.1256 82.2306C80.757 81.5699 76.68 84.5759 76.0194 88.9445L64.1629 167.349C63.5023 171.718 66.5082 175.795 70.8768 176.455L193.113 194.94C197.482 195.601 201.559 192.595 202.219 188.226L214.076 109.822C214.736 105.453 211.731 101.376 207.362 100.715Z" fill="#F54749"/>
<path d="M68.8431 136.399L206.9 157.276L202.22 188.226C201.559 192.595 197.482 195.601 193.113 194.94L70.8767 176.455C66.5081 175.795 63.5022 171.718 64.1628 167.349L68.8431 136.399Z" fill="#FF9293"/>
<path d="M111.021 148.007L73.1831 142.285L72.1006 149.443L109.938 155.165L111.021 148.007Z" fill="white"/>
<path d="M117.346 161.516L71.3274 154.557L70.2449 161.715L116.264 168.675L117.346 161.516Z" fill="white"/>
<path d="M180.836 214.776C191.848 214.776 200.776 205.848 200.776 194.836C200.776 183.823 191.848 174.896 180.836 174.896C169.823 174.896 160.896 183.823 160.896 194.836C160.896 205.848 169.823 214.776 180.836 214.776Z" fill="#F54749" stroke="white" stroke-width="15" stroke-miterlimit="10"/>
<path d="M188.517 193.166H182.839C182.795 193.166 182.752 193.157 182.711 193.14C182.671 193.124 182.634 193.099 182.603 193.068C182.572 193.037 182.547 193 182.53 192.96C182.514 192.919 182.505 192.876 182.505 192.832V187.154C182.505 186.711 182.329 186.286 182.016 185.973C181.703 185.66 181.278 185.484 180.835 185.484C180.392 185.484 179.967 185.66 179.654 185.973C179.341 186.286 179.165 186.711 179.165 187.154V192.832C179.165 192.876 179.156 192.919 179.14 192.96C179.123 193 179.098 193.037 179.067 193.068C179.036 193.099 178.999 193.124 178.959 193.14C178.918 193.157 178.875 193.166 178.831 193.166H173.154C172.714 193.17 172.293 193.348 171.983 193.66C171.673 193.973 171.499 194.396 171.499 194.836C171.499 195.276 171.673 195.699 171.983 196.011C172.293 196.324 172.714 196.502 173.154 196.506H178.832C178.92 196.506 179.005 196.541 179.068 196.604C179.131 196.666 179.166 196.751 179.166 196.84V202.518C179.166 202.961 179.342 203.385 179.655 203.698C179.968 204.012 180.393 204.188 180.836 204.188C181.279 204.188 181.703 204.012 182.016 203.698C182.33 203.385 182.506 202.961 182.506 202.518V196.84C182.506 196.751 182.541 196.666 182.603 196.604C182.666 196.541 182.751 196.506 182.84 196.506H188.517C188.958 196.502 189.379 196.324 189.688 196.011C189.998 195.699 190.172 195.276 190.172 194.836C190.172 194.396 189.998 193.973 189.688 193.66C189.379 193.348 188.958 193.17 188.517 193.166Z" fill="white"/>
</svg>
