<svg width="280" height="280" viewBox="0 0 280 280" fill="none" xmlns="http://www.w3.org/2000/svg">
<g clip-path="url(#clip0_323_131)">
<path d="M62.7318 126.852C62.7318 126.852 97.4026 125.465 104.895 68.5287C111.548 17.9639 170.013 40.9792 186.912 61.1355C208.804 87.2463 197.134 132.162 225.455 137.837C253.775 143.511 235.281 206.598 192.293 200.56C138.817 193.048 151.755 224.266 135.702 237.48C124.18 246.963 76.9399 237.834 75.3655 203.409C74.0405 174.441 61.8093 174.532 53.1397 171.248C40.6361 166.51 32.7575 132.201 62.7318 126.852Z" fill="#FFDEDE"/>
<path d="M186.983 205.233L148.892 167.594L141.349 175.227L179.44 212.866L186.983 205.233Z" fill="#FF9293"/>
<path d="M201.534 215.347L171.899 186.063C171.734 185.9 171.468 185.902 171.305 186.067L160.088 197.418C159.925 197.583 159.927 197.849 160.092 198.012L189.727 227.296C189.892 227.459 190.158 227.457 190.321 227.292L201.537 215.941C201.7 215.776 201.699 215.51 201.534 215.347Z" fill="#F54749"/>
<path d="M115.131 186.524C141.337 186.524 162.581 165.28 162.581 139.074C162.581 112.869 141.337 91.6247 115.131 91.6247C88.9255 91.6247 67.6816 112.869 67.6816 139.074C67.6816 165.28 88.9255 186.524 115.131 186.524Z" fill="#F54749"/>
<path d="M115.131 178.782C137.061 178.782 154.838 161.004 154.838 139.074C154.838 117.145 137.061 99.3672 115.131 99.3672C93.2015 99.3672 75.424 117.145 75.424 139.074C75.424 161.004 93.2015 178.782 115.131 178.782Z" fill="#FFDEDE"/>
<path d="M223.03 104.685L187.569 91.7076C186.302 91.2438 184.899 91.8952 184.435 93.1625L176.111 115.907C175.647 117.175 176.299 118.578 177.566 119.042L213.026 132.019C214.294 132.483 215.697 131.831 216.161 130.564L224.484 107.819C224.948 106.552 224.297 105.148 223.03 104.685Z" fill="#F54749"/>
<path d="M179.397 106.929L219.447 121.585L216.161 130.564C215.697 131.831 214.294 132.483 213.026 132.019L177.566 119.041C176.299 118.578 175.647 117.175 176.111 115.907L179.397 106.929Z" fill="#FF9293"/>
<path d="M191.314 112.972L180.338 108.955L179.578 111.031L190.554 115.048L191.314 112.972Z" fill="white"/>
<path d="M192.384 117.4L179.035 112.515L178.275 114.591L191.625 119.477L192.384 117.4Z" fill="white"/>
<path d="M118.079 193.653L101.56 216.343C100.97 217.154 101.149 218.29 101.96 218.88L116.513 229.475C117.324 230.066 118.46 229.887 119.05 229.076L135.569 206.387C136.159 205.576 135.98 204.44 135.169 203.849L120.616 193.254C119.805 192.664 118.669 192.843 118.079 193.653Z" fill="#F54749"/>
<path d="M110.768 225.293L129.424 199.667L135.169 203.849C135.98 204.44 136.159 205.576 135.569 206.387L119.05 229.076C118.46 229.887 117.324 230.066 116.513 229.475L110.768 225.293Z" fill="#FF9293"/>
<path d="M117.521 218.011L112.408 225.035L113.737 226.002L118.85 218.979L117.521 218.011Z" fill="white"/>
<path d="M120.905 218.151L114.686 226.693L116.015 227.66L122.234 219.118L120.905 218.151Z" fill="white"/>
</g>
<defs>
<clipPath id="clip0_323_131">
<rect width="280" height="280" fill="white"/>
</clipPath>
</defs>
</svg>
