<svg width="18" height="18" viewBox="0 0 18 18" fill="none" xmlns="http://www.w3.org/2000/svg">
<path d="M9 17.4736C13.6235 17.4736 17.4668 13.6387 17.4668 9.00684C17.4668 4.3833 13.6152 0.540039 8.9917 0.540039C4.35986 0.540039 0.533203 4.3833 0.533203 9.00684C0.533203 13.6387 4.36816 17.4736 9 17.4736ZM6.02002 12.6924C5.62988 12.6924 5.31445 12.377 5.31445 11.9868C5.31445 11.7959 5.39746 11.6299 5.53027 11.5054L8.00391 9.01514L5.53027 6.5249C5.39746 6.40869 5.31445 6.23438 5.31445 6.04346C5.31445 5.66162 5.62988 5.35449 6.02002 5.35449C6.21094 5.35449 6.37695 5.4292 6.50146 5.56201L8.9917 8.04395L11.4985 5.55371C11.6396 5.4043 11.7891 5.33789 11.9717 5.33789C12.3618 5.33789 12.6772 5.65332 12.6772 6.03516C12.6772 6.22607 12.6108 6.38379 12.4697 6.5166L9.97949 9.01514L12.4614 11.4888C12.5859 11.6216 12.6689 11.7876 12.6689 11.9868C12.6689 12.377 12.3535 12.6924 11.9634 12.6924C11.7642 12.6924 11.5981 12.6094 11.4736 12.4849L8.9917 9.99463L6.51807 12.4849C6.39355 12.6177 6.21094 12.6924 6.02002 12.6924Z" fill="#FF9293"/>
</svg>
