<svg width="44" height="44" viewBox="0 0 44 44" fill="none" xmlns="http://www.w3.org/2000/svg">
<path d="M22 44C34.1503 44 44 34.1503 44 22C44 9.84974 34.1503 0 22 0C9.84974 0 0 9.84974 0 22C0 34.1503 9.84974 44 22 44Z" fill="#F54749"/>
<path d="M24.6601 11C23.2099 11 21.8191 11.5607 20.7937 12.5588C19.7682 13.5568 19.1921 14.9105 19.1921 16.3219V19.2849H16.266C16.1191 19.2849 16 19.4008 16 19.5438V23.4562C16 23.5992 16.1191 23.7151 16.266 23.7151H19.1921V31.7411C19.1921 31.8841 19.3112 32 19.4581 32H23.4778C23.6247 32 23.7438 31.8841 23.7438 31.7411V23.7151H26.6959C26.8179 23.7151 26.9243 23.6342 26.9539 23.519L27.9589 19.6066C28.0008 19.4432 27.8739 19.2849 27.7008 19.2849H23.7438V16.3219C23.7438 16.0854 23.8404 15.8586 24.0122 15.6913C24.184 15.5241 24.4171 15.4301 24.6601 15.4301H27.734C27.8809 15.4301 28 15.3142 28 15.1712V11.2589C28 11.1159 27.8809 11 27.734 11H24.6601Z" fill="white"/>
</svg>
