<svg width="44" height="44" viewBox="0 0 44 44" fill="none" xmlns="http://www.w3.org/2000/svg">
<path d="M22 44C34.1503 44 44 34.1503 44 22C44 9.84974 34.1503 0 22 0C9.84974 0 0 9.84974 0 22C0 34.1503 9.84974 44 22 44Z" fill="#F54749"/>
<path d="M22 18.1173C19.852 18.1173 18.1108 19.8557 18.1108 22C18.1108 24.1443 19.852 25.8827 22 25.8827C24.1479 25.8827 25.8892 24.1443 25.8892 22C25.8892 19.8557 24.1479 18.1173 22 18.1173Z" fill="white"/>
<path fill-rule="evenodd" clip-rule="evenodd" d="M15.7408 11.3453C19.8671 10.8849 24.1329 10.8849 28.2592 11.3453C30.531 11.5988 32.3633 13.3857 32.63 15.6616C33.1233 19.8729 33.1233 24.1271 32.63 28.3384C32.3633 30.6143 30.531 32.4012 28.2592 32.6547C24.1329 33.1151 19.8671 33.1151 15.7408 32.6547C13.469 32.4012 11.6367 30.6143 11.37 28.3384C10.8767 24.1271 10.8767 19.8729 11.37 15.6616C11.6367 13.3857 13.469 11.5988 15.7408 11.3453ZM27.9834 14.832C27.3225 14.832 26.7867 15.3669 26.7867 16.0267C26.7867 16.6864 27.3225 17.2213 27.9834 17.2213C28.6443 17.2213 29.1801 16.6864 29.1801 16.0267C29.1801 15.3669 28.6443 14.832 27.9834 14.832ZM16.3158 22C16.3158 18.866 18.8607 16.3253 22 16.3253C25.1393 16.3253 27.6842 18.866 27.6842 22C27.6842 25.134 25.1393 27.6747 22 27.6747C18.8607 27.6747 16.3158 25.134 16.3158 22Z" fill="white"/>
</svg>
