<svg width="44" height="44" viewBox="0 0 44 44" fill="none" xmlns="http://www.w3.org/2000/svg">
<path d="M44 22C44 9.84974 34.1503 0 22 0C9.84974 0 0 9.84974 0 22C0 34.1503 9.84974 44 22 44C34.1503 44 44 34.1503 44 22Z" fill="#F54749"/>
<path d="M22 12C19.3277 12 17.1613 14.0377 17.1613 16.5512C17.1613 19.0648 19.3277 21.1025 22 21.1025C24.6723 21.1025 26.8387 19.0648 26.8387 16.5512C26.8387 14.0377 24.6723 12 22 12Z" fill="white"/>
<path d="M16.8387 23.5298C14.1664 23.5298 12 25.5674 12 28.081V29.5232C12 30.4374 12.7044 31.2168 13.6636 31.3641C19.1846 32.212 24.8154 32.212 30.3364 31.3641C31.2956 31.2168 32 30.4374 32 29.5232V28.081C32 25.5674 29.8336 23.5298 27.1613 23.5298H26.7215C26.4834 23.5298 26.2468 23.5652 26.0206 23.6347L24.9038 23.9777C23.0169 24.5572 20.9831 24.5572 19.0962 23.9777L17.9794 23.6347C17.7532 23.5652 17.5166 23.5298 17.2785 23.5298H16.8387Z" fill="white"/>
</svg>
