<svg width="11" height="11" viewBox="0 0 11 11" fill="none" xmlns="http://www.w3.org/2000/svg">
<g clip-path="url(#clip0_352_309)">
<path d="M10.6768 4.52128L7.67898 4.06505L6.33888 1.22008C6.30228 1.14219 6.24206 1.07913 6.16768 1.0408C5.98113 0.944367 5.75443 1.02473 5.66116 1.22008L4.32106 4.06505L1.32325 4.52128C1.2406 4.53365 1.16504 4.57445 1.10719 4.63627C1.03725 4.71155 0.998705 4.81283 1.00003 4.91785C1.00136 5.02287 1.04245 5.12304 1.11427 5.19636L3.28322 7.41076L2.7708 10.5376C2.75878 10.6104 2.76647 10.6852 2.79298 10.7536C2.8195 10.822 2.86379 10.8812 2.92083 10.9246C2.97786 10.968 3.04537 10.9938 3.11568 10.999C3.18599 11.0043 3.25631 10.9888 3.31864 10.9543L6.00002 9.47803L8.6814 10.9543C8.7546 10.9951 8.83961 11.0087 8.92108 10.9939C9.12652 10.9568 9.26466 10.7528 9.22924 10.5376L8.71682 7.41076L10.8858 5.19636C10.9448 5.13577 10.9838 5.05664 10.9956 4.9701C11.0275 4.75373 10.8834 4.55343 10.6768 4.52128Z" fill="#F54749"/>
</g>
<defs>
<clipPath id="clip0_352_309">
<rect width="11" height="11" fill="white"/>
</clipPath>
</defs>
</svg>
