<svg width="44" height="44" viewBox="0 0 44 44" fill="none" xmlns="http://www.w3.org/2000/svg">
<path d="M22 44C34.1503 44 44 34.1503 44 22C44 9.84974 34.1503 0 22 0C9.84974 0 0 9.84974 0 22C0 34.1503 9.84974 44 22 44Z" fill="#F54749"/>
<path fill-rule="evenodd" clip-rule="evenodd" d="M33 16.0076C32.228 16.3485 31.3971 16.5781 30.5257 16.6818C31.4153 16.1516 32.0985 15.3127 32.4197 14.3131C31.5882 14.8041 30.665 15.1597 29.6844 15.3524C28.8983 14.5204 27.7777 14 26.5394 14C24.1603 14 22.2312 15.9173 22.2312 18.2818C22.2312 18.617 22.2697 18.944 22.3432 19.2578C18.7623 19.0797 15.5879 17.3746 13.4629 14.784C13.0919 15.4164 12.8798 16.1516 12.8798 16.9364C12.8798 18.4216 13.6393 19.7323 14.7963 20.5002C14.0893 20.478 13.4258 20.2853 12.8441 19.9645V20.0181C12.8441 22.0933 14.3301 23.8233 16.2998 24.2178C15.9386 24.3152 15.5578 24.3681 15.1652 24.3681C14.8873 24.3681 14.6171 24.341 14.3539 24.2909C14.902 25.9918 16.4937 27.23 18.3787 27.2648C16.9045 28.4127 15.0469 29.0978 13.0282 29.0978C12.6796 29.0978 12.3367 29.0777 12 29.0373C13.9067 30.252 16.171 30.9615 18.6041 30.9615C26.5282 30.9615 30.8617 24.437 30.8617 18.7791C30.8617 18.5934 30.8582 18.4084 30.8491 18.2254C31.6918 17.6202 32.4225 16.8661 33 16.0076Z" fill="white"/>
</svg>
